[img]http://img15.imageshack.us/img15/8163/greatgambler.jpg[/img]




[img]http://img819.imageshack.us/img819/5598/roadies1.jpg[/img]



[b]MTV Roadies 9 : Everything or Nothing is the ninth season of MTV Roadies, a reality television show aired on MTV India . The auditions started on 16 September from Pune following with Audition in Kolkata , Delhi, Chandhigarh and Hyderabad. Part of the season will take place in United States of America. The show started airing on MTV India from 7th January 2012 and every new episode airs on Saturdays at 7 P.M. IST.[/b]

[img]http://img18.imageshack.us/img18/6966/infoum.png[/img]

General

Format                           : AVI
Format/Info                      : Audio Video Interleave
File size                        : 437 MiB
Duration                         : 1h 7mn
Overall bit rate                 : 906 Kbps
Writing application              : MEncoder SVN-r30881(20100311-gcc4.3.3)
Writing library                  : MPlayer

Video
ID                               : 0
Format                           : MPEG-4 Visual
Format profile                   : Advanced Simple@L5
Format settings, BVOP            : 2
Format settings, QPel            : No
Format settings, GMC             : No warppoints
Format settings, Matrix          : Default (H.263)
Codec ID                         : XVID
Codec ID/Hint                    : XviD
Duration                         : 1h 7mn
Bit rate                         : 766 Kbps
Width                            : 618 pixels
Height                           : 464 pixels
Display aspect ratio             : 4:3
Frame rate                       : 25.000 fps
Color space                      : YUV
Chroma subsampling               : 4:2:0
Bit depth                        : 8 bits
Scan type                        : Progressive
Compression mode                 : Lossy
Bits/(Pixel*Frame)               : 0.107
Stream size                      : 369 MiB (85%)
Writing library                  : XviD 1.2.1 (UTC 2008-12-04)

Audio
ID                               : 1
Format                           : MPEG Audio
Format version                   : Version 1
Format profile                   : Layer 3
Mode                             : Joint stereo
Mode extension                   : MS Stereo
Codec ID                         : 55
Codec ID/Hint                    : MP3
Duration                         : 1h 7mn
Bit rate mode                    : Constant
Bit rate                         : 128 Kbps
Channel(s)                       : 2 channels
Sampling rate                    : 44.1 KHz
Compression mode                 : Lossy
Delay relative to video          : 40ms
Stream size                      : 61.7 MiB (14%)
Alignment                        : Aligned on interleaves
Interleave, duration             : 26 ms (0.65 video frame)
Interleave, preload duration     : 522 ms
Writing library                  : LAME3.98
Language                         : Hindi



[img]http://img231.imageshack.us/img231/3671/screenshoots.png[/img]


[img]http://img853.imageshack.us/img853/6082/vlcsnap2012011719h54m48.png[/img]


[img]http://img710.imageshack.us/img710/599/vlcsnap2012011719h56m14.png[/img]


[img]http://img259.imageshack.us/img259/5493/vlcsnap2012011719h56m32.png[/img]


[img]http://img543.imageshack.us/img543/1448/vlcsnap2012011719h57m57.png[/img]


[img]http://img850.imageshack.us/img850/5056/vlcsnap2012011719h58m15.png[/img]


[img]http://img38.imageshack.us/img38/2510/vlcsnap2012011719h58m33.png[/img]